# xmcd
#
# Track frame offsets:
#	150
#	24145
#	36748
#	48601
#	68206
#	83924
#	97743
#	109732
#	122598
#	136902
#	151652
#	174512
#	193592
#	216332
#	227425
#	244160
#	257555
#	280384
#	298217
#
# Disc length: 4231 seconds
#
# Revision: 1
# Processed by: cddbd v1.5.2PL0 Copyright (c) Steve Scherf et al.
# Submitted via: audiograbber 1.83.01
#
DISCID=0c108513
DTITLE=John Katzenbach - Die Grausamen
DYEAR=1900
DGENRE=
TTITLE0=201
TTITLE1=202
TTITLE2=203
TTITLE3=204
TTITLE4=205
TTITLE5=206
TTITLE6=207
TTITLE7=208
TTITLE8=209
TTITLE9=210
TTITLE10=211
TTITLE11=212
TTITLE12=213
TTITLE13=214
TTITLE14=215
TTITLE15=216
TTITLE16=217
TTITLE17=218
TTITLE18=219
EXTD=
EXTT0=
EXTT1=
EXTT2=
EXTT3=
EXTT4=
EXTT5=
EXTT6=
EXTT7=
EXTT8=
EXTT9=
EXTT10=
EXTT11=
EXTT12=
EXTT13=
EXTT14=
EXTT15=
EXTT16=
EXTT17=
EXTT18=
PLAYORDER=
